<?xml version="1.0" standalone="no"?>
<!DOCTYPE svg PUBLIC "-//W3C//DTD SVG 20010904//EN"
 "http://www.w3.org/TR/2001/REC-SVG-20010904/DTD/svg10.dtd">
<svg version="1.0" xmlns="http://www.w3.org/2000/svg"
 width="202.000000pt" height="202.000000pt" viewBox="0 0 202.000000 202.000000"
 preserveAspectRatio="xMidYMid meet">
<metadata>
Created by potrace 1.11, written by Peter Selinger 2001-2013
</metadata>
<g transform="translate(0.000000,202.000000) scale(0.100000,-0.100000)"
fill="#000000" stroke="none">
<path d="M1008 1951 c-9 -23 -12 -39 -7 -36 13 9 11 -6 -6 -56 -9 -24 -18 -55
-20 -69 -2 -14 -7 -37 -10 -51 -5 -19 0 -33 19 -56 14 -17 26 -34 26 -37 0 -9
-50 -7 -50 2 -1 4 -12 21 -26 37 -15 17 -23 23 -19 15 5 -8 15 -23 23 -33 12
-14 13 -22 4 -43 -7 -14 -16 -23 -20 -20 -5 3 -35 -2 -68 -11 -32 -8 -68 -17
-78 -19 -32 -6 -181 -83 -217 -112 -122 -98 -193 -186 -250 -309 -40 -85 -41
-90 -63 -208 -31 -166 8 -370 99 -521 48 -81 91 -130 189 -219 20 -18 91 -62
141 -87 133 -67 303 -97 433 -77 43 6 86 12 98 13 32 3 145 47 176 68 14 10
33 18 41 18 9 0 17 3 19 8 2 4 22 20 45 36 100 67 196 181 250 296 58 123 76
205 76 345 0 107 -10 176 -38 256 -23 63 -90 184 -132 238 -60 75 -181 174
-253 207 -70 32 -105 46 -123 50 -11 2 -34 8 -51 13 -28 9 -73 18 -102 20 -25
2 -24 34 1 67 28 37 28 44 -8 124 -11 25 -21 47 -21 50 -1 3 -8 21 -17 40 -8
19 -22 50 -30 69 l-15 34 -16 -42z m36 -31 c9 -44 14 -64 26 -110 24 -86 23
-102 -10 -139 l-30 -34 0 139 c0 77 -3 150 -6 164 -5 18 -4 22 4 15 6 -5 13
-21 16 -35z m46 -299 c0 -4 -32 -7 -71 -8 -66 0 -84 11 -29 19 35 4 100 -3
100 -11z m10 -41 c0 -5 -4 -10 -10 -10 -5 0 -10 5 -10 10 0 6 5 10 10 10 6 0
10 -4 10 -10z m-33 -75 c-20 -62 -27 -76 -38 -70 -6 4 -6 11 -1 18 16 21 22
61 10 74 -7 9 -7 13 0 13 6 0 14 10 18 23 l8 22 6 -25 c3 -14 2 -38 -3 -55z
m-60 24 c16 -16 3 -58 -20 -65 -25 -8 -47 18 -40 46 4 16 14 23 44 29 3 0 10
-4 16 -10z m-272 -106 c3 -13 13 -23 23 -23 13 -1 11 -4 -8 -15 -32 -18 -41
-19 -34 -1 6 15 -20 46 -52 64 -16 9 -17 13 -6 24 8 8 15 9 20 3 4 -6 15 -16
25 -24 15 -12 17 -11 17 13 0 16 -4 25 -10 21 -5 -3 -10 -2 -10 4 0 5 6 11 13
14 7 2 13 -8 15 -27 1 -17 5 -41 7 -53z m672 31 c3 -9 1 -20 -6 -27 -8 -8 -11
-5 -11 11 0 14 -9 27 -25 34 -21 10 -28 8 -45 -12 -24 -27 -26 -53 -5 -70 19
-15 47 -6 39 14 -4 11 0 13 15 9 24 -6 26 -14 9 -31 -29 -29 -98 -1 -98 40 0
29 19 58 43 67 25 10 75 -11 84 -35z m-447 -54 c0 -5 -5 -10 -11 -10 -5 0 -7
5 -4 10 3 6 8 10 11 10 2 0 4 -4 4 -10z m47 4 c-3 -3 -12 -4 -19 -1 -8 3 -5 6
6 6 11 1 17 -2 13 -5z m60 0 c-3 -3 -12 -4 -19 -1 -8 3 -5 6 6 6 11 1 17 -2
13 -5z m53 -10 c0 -2 -7 -4 -15 -4 -8 0 -15 4 -15 10 0 5 7 7 15 4 8 -4 15 -8
15 -10z m-540 -4 c0 -5 -3 -9 -7 -9 -18 3 -33 -2 -33 -10 0 -15 61 -72 70 -66
17 11 11 -7 -7 -21 -20 -15 -37 -18 -29 -6 2 4 -9 23 -25 41 -24 28 -31 31
-44 21 -8 -7 -12 -17 -8 -24 3 -6 0 -5 -8 2 -11 11 -7 18 24 47 37 34 67 45
67 25z m330 0 c-8 -5 -19 -10 -25 -10 -5 0 -3 5 5 10 8 5 20 10 25 10 6 0 3
-5 -5 -10z m250 0 c8 -5 11 -10 5 -10 -5 0 -17 5 -25 10 -8 5 -10 10 -5 10 6
0 17 -5 25 -10z m395 -80 c-10 -11 -22 -18 -28 -17 -11 2 -13 -4 -16 -43 0
-11 -6 -20 -12 -20 -6 0 -9 16 -8 40 4 44 -10 54 -27 20 -11 -20 -13 -20 -21
-5 -7 12 -1 25 30 55 23 24 36 44 32 52 -4 7 10 -4 30 -25 35 -37 36 -39 20
-57z m-543 71 c4 -1 4 -11 2 -23 -3 -13 -8 -45 -11 -73 -3 -27 -6 -51 -8 -53
-1 -1 -22 23 -45 55 -24 32 -48 61 -54 65 -15 10 -1 20 35 24 18 2 34 6 36 8
3 2 12 3 21 1 9 -2 20 -4 24 -4z m101 -4 c21 -3 40 -7 43 -9 5 -6 -84 -122
-98 -127 -6 -2 -8 0 -5 5 3 5 1 33 -5 63 -10 58 -6 83 14 76 7 -2 30 -6 51 -8z
m-298 -17 c-3 -5 -11 -10 -16 -10 -6 0 -7 5 -4 10 3 6 11 10 16 10 6 0 7 -4 4
-10z m440 0 c3 -6 -1 -7 -9 -4 -18 7 -21 14 -7 14 6 0 13 -4 16 -10z m-389
-47 c-3 -27 -8 -57 -10 -68 -3 -11 -5 -27 -6 -35 -1 -17 -90 78 -90 96 0 10
34 31 80 47 29 11 32 6 26 -40z m369 31 c25 -10 40 -12 44 -5 4 6 12 7 21 1
13 -8 12 -10 -2 -10 -11 0 -15 -5 -12 -15 3 -8 -13 -37 -39 -69 l-44 -55 -6
42 c-3 23 -9 61 -13 85 -7 47 -4 49 51 26z m-465 -4 c-8 -5 -19 -10 -25 -10
-5 0 -3 5 5 10 8 5 20 10 25 10 6 0 3 -5 -5 -10z m-40 -24 c0 -2 -7 -7 -16
-10 -8 -3 -12 -2 -9 4 6 10 25 14 25 6z m232 -69 c24 -28 27 -38 22 -77 -3
-25 -6 -57 -7 -72 -1 -35 -5 -35 -17 -3 -9 24 -12 34 -25 98 -3 16 -12 48 -20
70 -19 56 -19 66 3 38 9 -12 29 -36 44 -54z m383 63 c3 -6 -1 -7 -9 -4 -18 7
-21 14 -7 14 6 0 13 -4 16 -10z m-170 -50 c3 -25 8 -53 11 -63 4 -11 -10 -38
-37 -73 -23 -30 -43 -53 -45 -51 -2 2 2 26 10 53 7 27 21 80 31 117 10 37 19
67 20 65 2 -2 6 -23 10 -48z m-485 36 c0 -2 -8 -10 -17 -17 -16 -13 -17 -12
-4 4 13 16 21 21 21 13z m80 -69 c16 -37 27 -67 24 -67 -3 0 -29 11 -57 24
-29 13 -62 26 -74 30 -19 6 -21 10 -10 27 6 10 15 19 20 19 4 0 18 9 29 20 12
11 26 19 31 17 5 -1 22 -33 37 -70z m273 18 c3 -27 6 -50 8 -50 1 0 3 -13 4
-30 1 -16 5 -49 9 -72 7 -39 6 -43 -13 -43 -20 0 -21 5 -21 127 0 131 5 155
13 68z m314 33 c18 -13 33 -26 33 -30 0 -5 4 -8 10 -8 5 0 6 8 3 18 -6 15 -5
15 10 4 14 -12 14 -16 2 -28 -7 -8 -16 -14 -18 -14 -3 0 -22 -8 -43 -17 -22
-9 -43 -18 -49 -19 -5 -1 -18 -5 -29 -10 -16 -6 -17 -4 -11 17 15 47 44 109
52 109 4 0 22 -10 40 -22z m23 7 c11 -13 10 -14 -4 -9 -9 3 -16 10 -16 15 0
13 6 11 20 -6z m-730 -29 c0 -3 -4 -8 -10 -11 -5 -3 -10 -1 -10 4 0 6 5 11 10
11 6 0 10 -2 10 -4z m-204 -31 c15 -14 38 -28 51 -31 18 -5 21 -9 12 -20 -9
-11 -18 -8 -52 13 -23 15 -47 26 -54 26 -8 0 -9 6 -2 19 12 23 13 23 45 -7z
m1224 -25 c23 -45 24 -50 9 -50 -5 0 -8 4 -5 8 9 14 -12 35 -28 29 -18 -7 -22
-27 -6 -27 16 0 12 -17 -6 -24 -8 -3 -13 -2 -10 2 2 4 1 14 -4 22 -8 13 -12
12 -27 -3 -17 -18 -17 -19 6 -38 18 -14 19 -19 7 -19 -21 0 -61 63 -43 69 30
10 87 53 82 61 -3 6 -4 10 -1 10 3 0 15 -18 26 -40z m-1060 15 c-7 -9 -15 -13
-19 -10 -3 3 1 10 9 15 21 14 24 12 10 -5z m850 -6 c0 -6 -4 -7 -10 -4 -5 3
-10 11 -10 16 0 6 5 7 10 4 6 -3 10 -11 10 -16z m28 -67 c8 -12 13 -24 11 -26
-8 -7 -131 -57 -134 -54 -2 2 11 37 28 79 l31 75 24 -25 c14 -14 31 -36 40
-49z m-804 -69 l7 -21 -53 20 c-91 34 -92 35 -72 66 9 15 26 38 38 50 l21 24
26 -59 c15 -32 29 -68 33 -80z m178 77 c33 -37 88 -110 88 -115 0 -3 -11 -5
-25 -5 -14 0 -25 5 -25 11 0 6 -20 45 -45 86 -48 79 -57 101 -25 62 11 -13 25
-31 32 -39z m385 38 c-3 -8 -6 -5 -6 6 -1 11 2 17 5 13 3 -3 4 -12 1 -19z
m-675 -20 c-7 -7 -12 -8 -12 -2 0 14 12 26 19 19 2 -3 -1 -11 -7 -17z m156 2
c22 -11 46 -20 51 -20 6 0 17 -10 25 -22 15 -24 58 -128 53 -128 -2 0 -45 43
-95 95 -50 52 -88 95 -84 95 5 0 27 -9 50 -20z m642 -47 c-18 -46 -35 -72 -51
-79 -13 -6 -43 -20 -67 -32 -30 -14 -40 -16 -34 -6 8 15 170 184 176 184 2 0
-9 -30 -24 -67z m118 42 c-3 -3 -9 2 -12 12 -6 14 -5 15 5 6 7 -7 10 -15 7
-18z m-280 -80 c-37 -95 -35 -92 -50 -77 -9 9 -8 18 3 39 25 50 71 124 75 121
2 -2 -11 -40 -28 -83z m-667 42 c-10 -9 -11 -8 -5 6 3 10 9 15 12 12 3 -3 0
-11 -7 -18z m977 -2 c-3 -3 -9 2 -12 12 -6 14 -5 15 5 6 7 -7 10 -15 7 -18z
m-1155 -17 c-26 -12 -31 -38 -8 -38 8 0 15 4 15 8 0 5 11 14 25 20 19 9 27 8
40 -4 28 -29 6 -77 -30 -63 -19 7 -19 8 1 8 24 1 36 21 25 40 -6 8 -15 6 -33
-9 -32 -25 -54 -26 -67 -3 -13 24 4 53 32 52 l22 0 -22 -11z m240 -61 c33 -26
53 -48 45 -48 -24 -3 -53 -6 -102 -14 l-48 -8 7 34 c4 19 13 44 21 56 9 14 10
24 4 28 -6 3 -10 1 -10 -4 0 -6 -5 -11 -11 -11 -8 0 -8 5 1 15 8 9 17 12 24 7
6 -5 37 -30 69 -55z m942 34 c-3 -3 -10 1 -15 9 -16 24 -11 4 10 -50 11 -28
20 -52 20 -54 0 -3 -44 1 -95 8 -16 2 -41 5 -55 5 l-25 2 25 20 c14 11 36 30
50 42 41 37 63 47 78 35 7 -6 10 -13 7 -17z m-1048 -43 c-3 -8 -6 -5 -6 6 -1
11 2 17 5 13 3 -3 4 -12 1 -19z m1067 6 c3 -8 2 -12 -4 -9 -6 3 -10 10 -10 16
0 14 7 11 14 -7z m190 -50 c3 -16 0 -24 -9 -24 -8 0 -11 7 -8 19 6 22 -8 33
-27 21 -11 -7 -11 -11 -1 -24 8 -9 11 -16 8 -16 -3 0 -13 -3 -23 -7 -12 -4
-15 -3 -10 6 4 6 5 19 2 27 -4 12 -9 12 -24 3 -20 -13 -19 -45 2 -52 6 -2 4
-3 -4 -3 -8 1 -20 17 -26 36 l-12 35 42 8 c22 5 48 15 56 23 13 12 15 11 22
-7 4 -11 10 -31 12 -45z m-1000 16 c97 -38 96 -37 90 -55 -5 -12 -19 -7 -73
22 -79 44 -132 77 -111 70 8 -3 51 -20 94 -37z m652 31 c-4 -5 -42 -39 -86
-75 -68 -56 -80 -63 -88 -49 -8 13 5 25 72 65 44 27 85 53 91 59 12 12 18 12
11 0z m-925 -48 c-12 -20 -14 -14 -5 12 4 9 9 14 11 11 3 -2 0 -13 -6 -23z
m634 17 c3 -6 -1 -7 -9 -4 -18 7 -21 14 -7 14 6 0 13 -4 16 -10z m463 -15 c-3
-3 -9 2 -12 12 -6 14 -5 15 5 6 7 -7 10 -15 7 -18z m-562 -30 c1 -25 0 -45 -1
-45 -2 0 -10 20 -18 45 -15 42 -15 45 1 45 14 0 18 -10 18 -45z m44 15 c-10
-33 -10 -36 -10 -50 0 -5 -4 -10 -10 -10 -5 0 -10 20 -10 45 0 38 3 45 19 45
17 0 18 -4 11 -30z m-145 11 c-3 -6 1 -13 8 -18 17 -10 51 -73 39 -73 -18 0
-61 56 -57 75 5 26 4 25 11 25 3 0 3 -4 -1 -9z m59 1 c2 -4 7 -25 11 -47 l7
-40 -27 38 c-14 20 -23 42 -20 47 7 12 22 13 29 2z m129 2 c8 -8 -24 -74 -36
-74 -5 0 -6 7 -3 16 3 9 9 27 12 40 6 24 15 30 27 18z m-381 -45 c23 -19 49
-39 57 -46 13 -10 9 -10 -19 -2 -19 6 -46 12 -60 15 -14 3 -39 9 -57 15 -17 5
-44 12 -59 15 -51 9 -49 18 6 30 74 15 84 13 132 -27z m428 14 c0 -7 -58 -63
-65 -63 -3 0 4 17 17 39 13 22 28 37 35 34 7 -3 13 -8 13 -10z m450 -28 c0 -5
-5 -3 -10 5 -5 8 -10 20 -10 25 0 6 5 3 10 -5 5 -8 10 -19 10 -25z m-1133 3
c-3 -8 -6 -5 -6 6 -1 11 2 17 5 13 3 -3 4 -12 1 -19z m83 -28 c0 -3 16 -14 35
-24 40 -22 45 -36 13 -37 -13 -1 -34 -3 -48 -5 -77 -13 -75 -13 -73 40 3 75 7
81 43 55 16 -13 30 -25 30 -29z m646 32 c1 -7 0 -8 -3 -2 -8 16 -26 12 -19 -5
4 -10 -3 -19 -18 -25 -24 -9 -45 -30 -29 -30 4 1 19 7 33 15 32 18 40 18 40 0
0 -8 -16 -18 -36 -24 -29 -8 -40 -7 -51 5 -13 13 -11 19 22 50 37 34 56 39 61
16z m304 -4 c-50 -45 -95 -74 -115 -72 -48 5 -109 15 -113 18 -2 2 12 8 30 12
18 4 36 9 41 10 4 1 8 2 10 3 1 2 11 4 22 6 11 2 47 13 80 24 33 11 62 20 65
20 3 1 -6 -9 -20 -21z m74 -15 c10 -61 8 -95 -5 -87 -7 4 -28 8 -48 10 -20 2
-49 6 -64 10 -28 6 -28 6 35 55 35 27 66 49 69 49 4 0 9 -17 13 -37z m-1234
12 c11 -13 15 -13 33 0 25 17 37 19 37 5 0 -5 -13 -16 -30 -25 -37 -19 -40
-39 -5 -33 21 5 25 1 25 -20 0 -18 -3 -22 -12 -15 -17 14 -98 23 -98 12 0 -5
-4 -9 -9 -9 -15 0 0 74 17 88 20 16 27 15 42 -3z m606 -52 c-2 -2 -20 6 -39
17 -24 14 -34 26 -30 36 4 12 13 8 39 -17 19 -18 32 -34 30 -36z m-489 15 c-3
-8 -6 -5 -6 6 -1 11 2 17 5 13 3 -3 4 -12 1 -19z m383 2 c-6 -11 -13 -20 -16
-20 -2 0 0 9 6 20 6 11 13 20 16 20 2 0 0 -9 -6 -20z m75 -25 c19 -16 19 -16
-10 -9 -16 3 -36 7 -42 7 -15 0 -15 0 -7 21 6 17 21 12 59 -19z m690 25 c3 -5
1 -10 -4 -10 -6 0 -11 5 -11 10 0 6 2 10 4 10 3 0 8 -4 11 -10z m-1148 -62
c-3 -7 -5 -2 -5 12 0 14 2 19 5 13 2 -7 2 -19 0 -25z m753 17 c0 -8 -3 -15 -7
-16 -39 -4 -73 -3 -73 2 0 5 51 25 73 28 4 1 7 -6 7 -14z m23 -5 c3 -11 1 -18
-4 -14 -5 3 -9 12 -9 20 0 20 7 17 13 -6z m-433 -4 c0 -18 -38 -22 -120 -15
-36 3 -58 7 -50 8 8 1 35 5 60 8 25 3 47 7 49 9 12 11 61 3 61 -10z m105 -1
l30 -14 -44 2 c-25 1 -46 7 -49 15 -5 16 25 15 63 -3z m823 -1 c28 1 52 -2 52
-6 0 -8 -50 -58 -76 -76 -17 -11 -13 -12 24 -9 33 2 42 -1 42 -14 0 -14 -8
-14 -60 -6 -33 5 -60 13 -60 16 1 3 22 22 48 41 l47 35 -33 3 c-18 2 -40 -2
-48 -9 -12 -9 -14 -7 -14 16 0 21 3 25 13 17 6 -6 36 -9 65 -8z m-1138 -14 c0
-5 -2 -10 -4 -10 -3 0 -8 5 -11 10 -3 6 -1 10 4 10 6 0 11 -4 11 -10z m334
-20 c-6 -6 -24 -13 -39 -16 -16 -3 -32 -7 -37 -10 -4 -3 -8 4 -8 15 0 18 6 21
47 21 32 0 44 -3 37 -10z m291 1 c3 -5 1 -12 -5 -16 -13 -8 -80 5 -80 16 0 12
77 12 85 0z m254 5 c-2 -2 -26 -7 -54 -10 -90 -10 -130 -16 -147 -22 -18 -5
-25 15 -11 29 3 4 54 7 111 7 58 0 103 -2 101 -4z m106 -72 l-6 -54 -44 31
c-25 18 -55 41 -67 53 l-22 21 69 10 c39 6 72 6 74 2 2 -5 0 -33 -4 -63z
m-1118 44 c-3 -8 -6 -5 -6 6 -1 11 2 17 5 13 3 -3 4 -12 1 -19z m146 9 c9 -1
16 -5 15 -9 -6 -16 -124 -96 -131 -89 -5 5 -10 32 -12 60 l-5 52 58 -7 c31 -3
65 -7 75 -7z m1004 -2 c0 -8 -4 -12 -9 -9 -5 3 -6 10 -3 15 9 13 12 11 12 -6z
m-857 -24 c33 -6 30 -8 -50 -30 -47 -12 -105 -29 -130 -36 l-45 -14 26 22
c100 84 85 80 199 58z m190 15 c0 -9 -72 -46 -81 -41 -17 11 -9 22 24 33 35
11 57 14 57 8z m264 -22 c17 -8 23 -12 14 -10 -9 3 -18 0 -20 -5 -4 -13 -78
20 -78 34 0 11 40 2 84 -19z m-800 -17 c13 -48 8 -54 -45 -59 -28 -3 -55 -11
-59 -17 -4 -8 -10 4 -14 29 -7 43 -2 60 17 60 8 0 8 -3 -1 -12 -17 -17 4 -53
23 -38 8 6 24 10 37 8 17 -2 24 2 26 20 2 12 -1 22 -7 22 -6 0 -11 4 -11 10 0
18 28 -1 34 -23z m-50 -2 c-7 -17 -20 -20 -28 -6 -4 5 0 12 6 14 23 9 28 7 22
-8z m103 -7 c-3 -8 -6 -5 -6 6 -1 11 2 17 5 13 3 -3 4 -12 1 -19z m482 5 c-8
-10 -20 -22 -26 -26 -7 -4 -13 -13 -13 -19 0 -7 16 4 36 23 20 18 35 30 32 24
-2 -5 -11 -25 -18 -42 -8 -18 -19 -33 -25 -33 -13 0 -61 48 -54 53 24 20 56
37 67 37 12 0 12 -3 1 -17z m211 2 c30 -15 37 -29 22 -39 -5 -3 -21 7 -36 21
-36 33 -46 22 -12 -12 25 -24 27 -45 6 -45 -14 0 -42 60 -36 76 7 18 20 18 56
-1z m265 -30 c11 -2 40 -10 65 -17 l45 -12 -70 -11 c-72 -11 -92 -7 -123 23
-10 9 -31 27 -47 39 l-30 22 70 -20 c39 -11 79 -22 90 -24z m-599 13 c-1 -16
-21 -33 -76 -66 -41 -25 -86 -46 -99 -48 -21 -2 -71 -38 -79 -56 -12 -27 -50
29 -59 85 -4 28 -3 30 25 24 16 -3 52 -9 81 -13 42 -5 49 -9 40 -20 -15 -18 5
-19 23 -1 20 19 139 117 142 117 2 0 3 -10 2 -22z m794 18 c0 -3 -4 -8 -10
-11 -5 -3 -10 -1 -10 4 0 6 5 11 10 11 6 0 10 -2 10 -4z m-625 -60 c-5 -26
-12 -36 -26 -36 -24 0 -24 1 2 45 26 43 33 40 24 -9z m109 7 c14 -29 15 -38 4
-44 -13 -8 -19 1 -32 54 -9 39 7 33 28 -10z m-627 5 c-3 -8 -6 -5 -6 6 -1 11
2 17 5 13 3 -3 4 -12 1 -19z m553 -18 c0 -30 -4 -40 -16 -40 -13 0 -15 6 -9
28 4 15 8 33 8 40 0 6 4 12 9 12 4 0 8 -18 8 -40z m31 33 c1 -16 7 -41 13 -61
6 -17 3 -19 -14 -15 -17 5 -20 12 -18 44 1 22 6 39 10 39 4 0 8 -3 9 -7z
m-180 -20 c13 -16 12 -17 -3 -4 -10 7 -18 15 -18 17 0 8 8 3 21 -13z m729 7
c0 -5 -5 -10 -11 -10 -5 0 -7 5 -4 10 3 6 8 10 11 10 2 0 4 -4 4 -10z m-283
-50 c48 -27 84 -50 81 -50 -8 0 -156 59 -181 72 -17 9 -15 28 3 28 6 0 49 -22
97 -50z m221 -47 l-23 -52 -62 48 -62 48 82 15 c58 10 83 11 85 3 1 -6 -8 -34
-20 -62z m-368 63 c0 -2 -7 -7 -16 -10 -8 -3 -12 -2 -9 4 6 10 25 14 25 6z
m414 -11 c-4 -8 -8 -15 -10 -15 -2 0 -4 7 -4 15 0 8 4 15 10 15 5 0 7 -7 4
-15z m-1094 -16 c0 -6 -4 -7 -10 -4 -5 3 -10 11 -10 16 0 6 5 7 10 4 6 -3 10
-11 10 -16z m350 6 c0 -2 -38 -42 -85 -88 -47 -46 -85 -82 -85 -79 0 3 10 31
23 63 23 61 27 64 145 108 1 1 2 -1 2 -4z m56 -40 c-7 -11 -30 -50 -50 -87
-21 -38 -40 -68 -42 -68 -4 0 32 93 48 124 6 12 11 22 10 24 -2 1 0 13 4 27 5
21 9 22 25 12 16 -10 17 -14 5 -32z m68 26 c4 -5 -3 -7 -14 -4 -23 6 -26 13
-6 13 8 0 17 -4 20 -9z m336 -87 c95 -95 95 -95 50 -76 -25 10 -57 22 -71 25
-22 6 -32 20 -53 72 -25 63 -29 75 -23 75 1 0 45 -43 97 -96z m-243 70 c-3 -3
-12 -4 -19 -1 -8 3 -5 6 6 6 11 1 17 -2 13 -5z m144 -104 c55 -94 49 -91 -40
20 -52 64 -59 76 -44 81 10 4 21 2 26 -4 4 -7 30 -50 58 -97z m541 87 c-3 -12
-10 -16 -21 -11 -29 12 -65 13 -72 2 -4 -6 -11 -2 -19 11 -11 22 -11 22 53 19
56 -2 63 -5 59 -21z m-1238 -3 c3 -8 2 -12 -4 -9 -6 3 -10 10 -10 16 0 14 7
11 14 -7z m1059 1 c-3 -9 -8 -14 -10 -11 -3 3 -2 9 2 15 9 16 15 13 8 -4z
m-541 -96 c2 -56 0 -103 -4 -106 -5 -2 -8 2 -9 9 -1 23 -8 81 -17 135 -9 55
-7 63 14 63 9 0 14 -28 16 -101z m384 80 c6 -5 19 -10 30 -12 10 -2 32 -9 47
-16 l29 -11 -36 -50 c-42 -58 -47 -77 -11 -37 14 15 29 27 32 27 4 0 -6 -13
-22 -30 -15 -16 -32 -27 -37 -24 -10 6 -55 103 -68 146 -7 22 -6 26 8 21 10
-3 22 -10 28 -14z m-731 -41 c-14 -29 -25 -57 -25 -63 0 -5 -9 -21 -20 -35
-16 -21 -21 -23 -32 -11 -11 12 -10 13 5 8 12 -5 8 8 -18 45 l-35 52 38 16
c20 9 48 21 62 28 46 20 50 14 25 -40z m-228 30 c-4 -14 -72 -97 -78 -98 -14
0 -19 34 -7 41 33 21 48 34 48 44 0 16 -60 12 -70 -5 -6 -8 -10 -12 -10 -8 0
3 -2 12 -5 20 -4 10 10 13 60 13 36 0 64 -3 62 -7z m503 -13 c-5 -14 -12 -36
-14 -48 -3 -12 -8 -34 -10 -48 -3 -14 -12 -44 -19 -65 -8 -21 -12 -46 -10 -54
4 -13 3 -13 -5 0 -5 8 -13 41 -17 73 -6 57 -6 59 35 113 24 29 44 54 46 54 2
0 -1 -11 -6 -25z m145 -1 c2 -11 15 -62 29 -114 14 -52 26 -99 26 -103 0 -10
-15 5 -56 58 -29 38 -31 43 -23 95 4 30 8 64 8 74 1 23 10 17 16 -10z m-571 0
c3 -8 2 -12 -4 -9 -6 3 -10 10 -10 16 0 14 7 11 14 -7z m1019 1 c-3 -9 -8 -14
-10 -11 -3 3 -2 9 2 15 9 16 15 13 8 -4z m161 7 c24 -2 27 -4 16 -17 -9 -11
-24 -13 -54 -9 l-41 5 29 -25 c17 -14 33 -23 38 -20 4 3 5 -2 2 -10 -5 -12 -9
-12 -27 4 -12 10 -33 28 -45 39 -39 33 -25 39 82 33z m-1160 -48 c3 -8 2 -12
-4 -9 -6 3 -10 10 -10 16 0 14 7 11 14 -7z m968 -16 c-7 -7 -12 -8 -12 -2 0
14 12 26 19 19 2 -3 -1 -11 -7 -17z m-938 -24 c3 -8 2 -12 -4 -9 -6 3 -10 10
-10 16 0 14 7 11 14 -7z m200 -50 c-26 -71 -40 -94 -58 -94 -6 0 -5 4 3 9 17
11 -1 23 -22 15 -8 -3 -18 -1 -22 5 -3 7 0 8 9 5 24 -9 19 0 -14 24 -25 19
-29 20 -23 5 5 -15 4 -16 -8 -5 -12 11 -10 16 10 33 13 11 35 22 50 26 14 3
42 14 61 25 19 10 35 18 36 18 1 0 -9 -30 -22 -66z m636 -4 c0 -4 -6 -13 -14
-20 -8 -6 -12 -19 -9 -28 4 -14 3 -14 -5 -3 -8 11 -15 10 -40 -8 l-30 -21 -10
28 c-5 15 -10 30 -10 35 -1 4 -8 20 -17 37 -8 16 -15 33 -15 38 0 5 34 -4 75
-21 41 -16 75 -33 75 -37z m-886 -3 c-10 -6 -32 -23 -47 -39 -26 -26 -47 -30
-47 -9 0 5 18 21 40 36 22 15 40 34 40 42 0 12 3 11 17 -2 16 -16 15 -18 -3
-28z m335 16 c0 -27 11 -126 16 -140 2 -8 -4 -9 -24 -3 -32 9 -91 38 -91 45 0
9 85 115 92 115 4 0 7 -8 7 -17z m431 -84 c8 -14 1 -21 -40 -38 -75 -32 -73
-36 -55 88 l8 54 39 -44 c21 -24 43 -51 48 -60z m257 88 c13 -22 67 -54 81
-49 9 2 7 -4 -4 -17 -10 -11 -21 -17 -24 -13 -17 24 -75 62 -86 58 -11 -4 -11
-2 -1 14 14 23 23 25 34 7z m-535 -133 c3 -35 1 -39 -24 -41 -37 -3 -83 11
-83 25 0 6 20 37 45 69 l44 57 8 -35 c4 -20 8 -53 10 -75z m102 44 c25 -34 43
-65 39 -69 -5 -4 -32 -10 -61 -14 l-53 -6 7 53 c4 29 8 63 8 76 0 12 3 22 7
22 4 0 28 -28 53 -62z m316 58 c0 -2 -8 -10 -17 -17 -16 -13 -17 -12 -4 4 13
16 21 21 21 13z m-818 -93 c0 -27 1 -54 1 -61 -1 -22 19 -8 37 26 15 28 19 30
30 17 10 -12 10 -15 -1 -15 -16 0 -59 -59 -59 -80 0 -12 -2 -12 -15 1 -8 8
-15 35 -16 62 -1 26 -6 47 -10 47 -12 0 -39 -42 -33 -52 3 -4 -2 -5 -10 -2
-21 8 -22 5 19 48 19 21 35 42 35 47 0 5 5 9 10 9 6 0 11 -21 12 -47z m886 9
c6 -9 12 -28 12 -42 0 -44 -58 -82 -82 -53 -11 14 -10 16 12 10 38 -9 55 8 51
50 -2 19 -46 44 -64 37 -9 -3 -20 -18 -26 -32 -8 -24 -10 -25 -10 -5 -1 29 45
65 73 57 12 -3 27 -13 34 -22z m-148 14 c0 -3 -4 -8 -10 -11 -5 -3 -10 -1 -10
4 0 6 5 11 10 11 6 0 10 -2 10 -4z m-570 -32 c0 -2 -7 -4 -15 -4 -8 0 -15 4
-15 10 0 5 7 7 15 4 8 -4 15 -8 15 -10z m525 6 c-3 -5 -12 -10 -18 -10 -7 0
-6 4 3 10 19 12 23 12 15 0z m-490 -28 c-3 -3 -11 0 -18 7 -9 10 -8 11 6 5 10
-3 15 -9 12 -12z m445 8 c0 -5 -8 -10 -17 -10 -15 0 -16 2 -3 10 19 12 20 12
20 0z m-395 -28 c-3 -3 -11 0 -18 7 -9 10 -8 11 6 5 10 -3 15 -9 12 -12z m350
8 c-3 -5 -14 -10 -23 -9 -14 0 -13 2 3 9 27 11 27 11 20 0z m-295 -16 c0 -2
-7 -4 -15 -4 -8 0 -15 4 -15 10 0 5 7 7 15 4 8 -4 15 -8 15 -10z m35 -4 c3 -5
1 -10 -4 -10 -6 0 -11 5 -11 10 0 6 2 10 4 10 3 0 8 -4 11 -10z m160 0 c-3 -5
-12 -10 -18 -10 -7 0 -6 4 3 10 19 12 23 12 15 0z m52 4 c-3 -3 -12 -4 -19 -1
-8 3 -5 6 6 6 11 1 17 -2 13 -5z m153 -39 c7 -25 20 -49 28 -54 13 -7 12 -10
-5 -20 -18 -9 -22 -7 -27 14 -7 27 -17 30 -46 15 -22 -12 -17 -37 8 -42 11 -2
8 -7 -11 -15 -22 -10 -27 -10 -27 2 0 7 -5 26 -12 42 -6 15 -12 32 -12 36 -1
4 -8 12 -16 17 -9 6 -10 10 -3 10 6 0 19 3 28 6 9 4 15 3 13 -2 -1 -5 1 -19 6
-31 6 -19 10 -21 32 -11 29 14 30 22 5 47 -20 20 -19 23 20 30 4 0 12 -19 19
-44z m-303 29 c-3 -3 -12 -4 -19 -1 -8 3 -5 6 6 6 11 1 17 -2 13 -5z m50 0
c-3 -3 -12 -4 -19 -1 -8 3 -5 6 6 6 11 1 17 -2 13 -5z m-236 -23 c23 -18 23
-19 6 -61 -9 -24 -14 -46 -12 -51 4 -5 -16 -6 -32 0 -1 1 6 21 17 45 18 42 18
45 1 60 -10 9 -22 16 -28 16 -16 0 -43 -46 -43 -74 0 -18 -4 -24 -14 -20 -11
4 -10 13 7 47 29 62 56 73 98 38z"/>
<path d="M978 1524 c-5 -4 -8 -19 -8 -33 0 -18 3 -22 11 -14 6 6 9 21 7 33 -1
12 -6 18 -10 14z"/>
<path d="M1510 1344 c-9 -10 -10 -18 -2 -26 12 -12 32 -2 32 17 0 21 -16 26
-30 9z"/>
<path d="M302 918 c-19 -19 -14 -28 13 -28 27 0 32 12 12 29 -10 8 -17 7 -25
-1z"/>
<path d="M976 1883 c-6 -14 -5 -15 5 -6 7 7 10 15 7 18 -3 3 -9 -2 -12 -12z"/>
<path d="M960 1839 c-7 -11 -10 -23 -7 -25 2 -2 9 7 15 21 14 30 7 33 -8 4z"/>
<path d="M935 1789 c-4 -6 -5 -12 -2 -15 2 -3 7 2 10 11 7 17 1 20 -8 4z"/>
<path d="M920 1740 c-6 -11 -8 -20 -6 -20 3 0 10 9 16 20 6 11 8 20 6 20 -3 0
-10 -9 -16 -20z"/>
</g>
</svg>
