<?xml version="1.0" standalone="no"?>
<!DOCTYPE svg PUBLIC "-//W3C//DTD SVG 20010904//EN"
 "http://www.w3.org/TR/2001/REC-SVG-20010904/DTD/svg10.dtd">
<svg version="1.0" xmlns="http://www.w3.org/2000/svg"
 width="128.000000pt" height="128.000000pt" viewBox="0 0 128.000000 128.000000"
 preserveAspectRatio="xMidYMid meet">
<metadata>
Created by potrace 1.11, written by Peter Selinger 2001-2013
</metadata>
<g transform="translate(0.000000,128.000000) scale(0.100000,-0.100000)"
fill="#000000" stroke="none">
<path d="M259 1255 c-56 -30 -74 -120 -40 -189 l20 -38 -40 -54 c-46 -62 -90
-145 -115 -215 -16 -42 -22 -49 -45 -49 -42 0 -50 -36 -23 -98 12 -26 16 -65
16 -134 -1 -53 4 -113 9 -133 6 -21 12 -45 14 -54 6 -30 48 -136 63 -159 12
-19 13 -30 3 -61 -6 -21 -11 -43 -11 -50 0 -8 156 -11 586 -11 553 0 585 1
580 18 -2 9 -7 51 -11 92 -22 288 -26 408 -15 415 13 8 13 58 1 71 -5 5 -12
32 -16 59 -14 112 -38 193 -85 285 l-31 60 28 24 c50 43 32 150 -30 182 -35
19 -71 12 -150 -27 -52 -27 -60 -28 -85 -16 -54 28 -121 37 -224 32 -57 -2
-121 -9 -142 -14 -36 -9 -43 -7 -77 20 -71 56 -131 71 -180 44z"/>
</g>
</svg>
